G04 EAGLE Gerber RS-274X export*
G75*
%MOMM*%
%FSLAX34Y34*%
%LPD*%
%INSoldermask Top*%
%IPPOS*%
%AMOC8*
5,1,8,0,0,1.08239X$1,22.5*%
G01*
%ADD10C,4.003200*%
%ADD11R,1.103200X1.053200*%
%ADD12R,1.053200X1.103200*%
%ADD13C,0.505344*%
%ADD14R,1.495200X1.495200*%
%ADD15C,1.495200*%
%ADD16C,2.203200*%
%ADD17P,1.869504X8X292.500000*%
%ADD18C,1.524000*%
%ADD19R,1.303200X1.203200*%
%ADD20C,1.561200*%
%ADD21R,1.422400X2.438400*%
%ADD22R,3.803200X2.403200*%
%ADD23C,0.959600*%


D10*
X37000Y37000D03*
X863000Y37000D03*
X37000Y863000D03*
X863000Y863000D03*
D11*
X285000Y727800D03*
X285000Y716200D03*
X363600Y675200D03*
X363600Y686800D03*
D12*
X241700Y680000D03*
X253300Y680000D03*
D11*
X696400Y688800D03*
X696400Y677200D03*
D12*
X673200Y729000D03*
X684800Y729000D03*
X394200Y860000D03*
X405800Y860000D03*
D13*
X805280Y263490D02*
X805280Y256510D01*
X805280Y263490D02*
X812260Y263490D01*
X812260Y256510D01*
X805280Y256510D01*
X805280Y261310D02*
X812260Y261310D01*
X787740Y263490D02*
X787740Y256510D01*
X787740Y263490D02*
X794720Y263490D01*
X794720Y256510D01*
X787740Y256510D01*
X787740Y261310D02*
X794720Y261310D01*
X805280Y296510D02*
X805280Y303490D01*
X812260Y303490D01*
X812260Y296510D01*
X805280Y296510D01*
X805280Y301310D02*
X812260Y301310D01*
X787740Y303490D02*
X787740Y296510D01*
X787740Y303490D02*
X794720Y303490D01*
X794720Y296510D01*
X787740Y296510D01*
X787740Y301310D02*
X794720Y301310D01*
X805280Y336510D02*
X805280Y343490D01*
X812260Y343490D01*
X812260Y336510D01*
X805280Y336510D01*
X805280Y341310D02*
X812260Y341310D01*
X787740Y343490D02*
X787740Y336510D01*
X787740Y343490D02*
X794720Y343490D01*
X794720Y336510D01*
X787740Y336510D01*
X787740Y341310D02*
X794720Y341310D01*
X805280Y376510D02*
X805280Y383490D01*
X812260Y383490D01*
X812260Y376510D01*
X805280Y376510D01*
X805280Y381310D02*
X812260Y381310D01*
X787740Y383490D02*
X787740Y376510D01*
X787740Y383490D02*
X794720Y383490D01*
X794720Y376510D01*
X787740Y376510D01*
X787740Y381310D02*
X794720Y381310D01*
X805280Y416510D02*
X805280Y423490D01*
X812260Y423490D01*
X812260Y416510D01*
X805280Y416510D01*
X805280Y421310D02*
X812260Y421310D01*
X787740Y423490D02*
X787740Y416510D01*
X787740Y423490D02*
X794720Y423490D01*
X794720Y416510D01*
X787740Y416510D01*
X787740Y421310D02*
X794720Y421310D01*
X805280Y456510D02*
X805280Y463490D01*
X812260Y463490D01*
X812260Y456510D01*
X805280Y456510D01*
X805280Y461310D02*
X812260Y461310D01*
X787740Y463490D02*
X787740Y456510D01*
X787740Y463490D02*
X794720Y463490D01*
X794720Y456510D01*
X787740Y456510D01*
X787740Y461310D02*
X794720Y461310D01*
X805280Y496510D02*
X805280Y503490D01*
X812260Y503490D01*
X812260Y496510D01*
X805280Y496510D01*
X805280Y501310D02*
X812260Y501310D01*
X787740Y503490D02*
X787740Y496510D01*
X787740Y503490D02*
X794720Y503490D01*
X794720Y496510D01*
X787740Y496510D01*
X787740Y501310D02*
X794720Y501310D01*
X805280Y536510D02*
X805280Y543490D01*
X812260Y543490D01*
X812260Y536510D01*
X805280Y536510D01*
X805280Y541310D02*
X812260Y541310D01*
X787740Y543490D02*
X787740Y536510D01*
X787740Y543490D02*
X794720Y543490D01*
X794720Y536510D01*
X787740Y536510D01*
X787740Y541310D02*
X794720Y541310D01*
D14*
X367950Y625700D03*
D15*
X367950Y600300D03*
X367950Y574900D03*
X367950Y549500D03*
X367950Y524100D03*
X367950Y498700D03*
X367950Y473300D03*
X367950Y447900D03*
X367950Y422500D03*
X367950Y397100D03*
X367950Y371700D03*
X367950Y346300D03*
X367950Y320900D03*
X367950Y295500D03*
X367950Y270100D03*
X367950Y244700D03*
X367950Y219300D03*
X367950Y193900D03*
X367950Y168500D03*
X367950Y143100D03*
X522250Y143100D03*
X522250Y168500D03*
X522250Y193900D03*
X522250Y219300D03*
X522250Y244700D03*
X522250Y270100D03*
X522250Y295500D03*
X522250Y320900D03*
X522250Y346300D03*
X522250Y371700D03*
X522250Y397100D03*
X522250Y422500D03*
X522250Y447900D03*
X522250Y473300D03*
X522250Y498700D03*
X522250Y524100D03*
X522250Y549500D03*
X522250Y574900D03*
X522250Y600300D03*
X522250Y625700D03*
D16*
X754700Y749300D02*
X774700Y749300D01*
X774700Y810300D02*
X754700Y810300D01*
X716700Y790300D02*
X716700Y770300D01*
D17*
X723100Y94000D03*
X748500Y94000D03*
X723100Y68600D03*
X748500Y68600D03*
X723100Y43200D03*
X748500Y43200D03*
D18*
X111304Y203500D02*
X98096Y203500D01*
X174296Y178100D02*
X187504Y178100D01*
X60504Y178100D02*
X47296Y178100D01*
D19*
X641500Y300000D03*
X658500Y300000D03*
X641500Y260000D03*
X658500Y260000D03*
X448800Y685000D03*
X465800Y685000D03*
X68900Y550000D03*
X85900Y550000D03*
X408700Y686000D03*
X425700Y686000D03*
X150600Y686000D03*
X167600Y686000D03*
X102500Y686000D03*
X119500Y686000D03*
X588400Y684000D03*
X605400Y684000D03*
X543300Y684000D03*
X560300Y684000D03*
X273800Y550000D03*
X290800Y550000D03*
X641500Y540000D03*
X658500Y540000D03*
X641500Y500000D03*
X658500Y500000D03*
X641500Y460000D03*
X658500Y460000D03*
X641500Y420000D03*
X658500Y420000D03*
X641500Y380000D03*
X658500Y380000D03*
X641500Y340000D03*
X658500Y340000D03*
D20*
X135400Y459500D03*
X172100Y459500D03*
X135300Y422800D03*
X172100Y422800D03*
D21*
X396886Y729012D03*
X420000Y729012D03*
X443114Y729012D03*
D22*
X420000Y790990D03*
D21*
X142886Y777012D03*
X166000Y777012D03*
X189114Y777012D03*
D22*
X166000Y838990D03*
D21*
X586886Y729012D03*
X610000Y729012D03*
X633114Y729012D03*
D22*
X610000Y790990D03*
D23*
X424180Y706120D03*
X393700Y675640D03*
X419100Y859790D03*
X102870Y701040D03*
X478790Y351790D03*
X320040Y515620D03*
X242570Y438150D03*
M02*
