G04 EAGLE Gerber RS-274X export*
G75*
%MOMM*%
%FSLAX34Y34*%
%LPD*%
%INTop Copper*%
%IPPOS*%
%AMOC8*
5,1,8,0,0,1.08239X$1,22.5*%
G01*
%ADD10R,0.900000X0.850000*%
%ADD11R,0.850000X0.900000*%
%ADD12C,0.300000*%
%ADD13R,1.292000X1.292000*%
%ADD14C,1.292000*%
%ADD15C,2.000000*%
%ADD16P,1.649562X8X292.500000*%
%ADD17C,1.320800*%
%ADD18R,1.100000X1.000000*%
%ADD19C,1.358000*%
%ADD20R,1.219200X2.235200*%
%ADD21R,3.600000X2.200000*%
%ADD22C,0.508000*%
%ADD23C,0.756400*%
%ADD24C,0.304800*%
%ADD25C,0.254000*%


D10*
X285000Y727800D03*
X285000Y716200D03*
X363600Y675200D03*
X363600Y686800D03*
D11*
X241700Y680000D03*
X253300Y680000D03*
D10*
X696400Y688800D03*
X696400Y677200D03*
D11*
X673200Y729000D03*
X684800Y729000D03*
X394200Y860000D03*
X405800Y860000D03*
D12*
X805270Y263500D02*
X805270Y256500D01*
X805270Y263500D02*
X812270Y263500D01*
X812270Y256500D01*
X805270Y256500D01*
X805270Y259350D02*
X812270Y259350D01*
X812270Y262200D02*
X805270Y262200D01*
X787730Y263500D02*
X787730Y256500D01*
X787730Y263500D02*
X794730Y263500D01*
X794730Y256500D01*
X787730Y256500D01*
X787730Y259350D02*
X794730Y259350D01*
X794730Y262200D02*
X787730Y262200D01*
X805270Y296500D02*
X805270Y303500D01*
X812270Y303500D01*
X812270Y296500D01*
X805270Y296500D01*
X805270Y299350D02*
X812270Y299350D01*
X812270Y302200D02*
X805270Y302200D01*
X787730Y303500D02*
X787730Y296500D01*
X787730Y303500D02*
X794730Y303500D01*
X794730Y296500D01*
X787730Y296500D01*
X787730Y299350D02*
X794730Y299350D01*
X794730Y302200D02*
X787730Y302200D01*
X805270Y336500D02*
X805270Y343500D01*
X812270Y343500D01*
X812270Y336500D01*
X805270Y336500D01*
X805270Y339350D02*
X812270Y339350D01*
X812270Y342200D02*
X805270Y342200D01*
X787730Y343500D02*
X787730Y336500D01*
X787730Y343500D02*
X794730Y343500D01*
X794730Y336500D01*
X787730Y336500D01*
X787730Y339350D02*
X794730Y339350D01*
X794730Y342200D02*
X787730Y342200D01*
X805270Y376500D02*
X805270Y383500D01*
X812270Y383500D01*
X812270Y376500D01*
X805270Y376500D01*
X805270Y379350D02*
X812270Y379350D01*
X812270Y382200D02*
X805270Y382200D01*
X787730Y383500D02*
X787730Y376500D01*
X787730Y383500D02*
X794730Y383500D01*
X794730Y376500D01*
X787730Y376500D01*
X787730Y379350D02*
X794730Y379350D01*
X794730Y382200D02*
X787730Y382200D01*
X805270Y416500D02*
X805270Y423500D01*
X812270Y423500D01*
X812270Y416500D01*
X805270Y416500D01*
X805270Y419350D02*
X812270Y419350D01*
X812270Y422200D02*
X805270Y422200D01*
X787730Y423500D02*
X787730Y416500D01*
X787730Y423500D02*
X794730Y423500D01*
X794730Y416500D01*
X787730Y416500D01*
X787730Y419350D02*
X794730Y419350D01*
X794730Y422200D02*
X787730Y422200D01*
X805270Y456500D02*
X805270Y463500D01*
X812270Y463500D01*
X812270Y456500D01*
X805270Y456500D01*
X805270Y459350D02*
X812270Y459350D01*
X812270Y462200D02*
X805270Y462200D01*
X787730Y463500D02*
X787730Y456500D01*
X787730Y463500D02*
X794730Y463500D01*
X794730Y456500D01*
X787730Y456500D01*
X787730Y459350D02*
X794730Y459350D01*
X794730Y462200D02*
X787730Y462200D01*
X805270Y496500D02*
X805270Y503500D01*
X812270Y503500D01*
X812270Y496500D01*
X805270Y496500D01*
X805270Y499350D02*
X812270Y499350D01*
X812270Y502200D02*
X805270Y502200D01*
X787730Y503500D02*
X787730Y496500D01*
X787730Y503500D02*
X794730Y503500D01*
X794730Y496500D01*
X787730Y496500D01*
X787730Y499350D02*
X794730Y499350D01*
X794730Y502200D02*
X787730Y502200D01*
X805270Y536500D02*
X805270Y543500D01*
X812270Y543500D01*
X812270Y536500D01*
X805270Y536500D01*
X805270Y539350D02*
X812270Y539350D01*
X812270Y542200D02*
X805270Y542200D01*
X787730Y543500D02*
X787730Y536500D01*
X787730Y543500D02*
X794730Y543500D01*
X794730Y536500D01*
X787730Y536500D01*
X787730Y539350D02*
X794730Y539350D01*
X794730Y542200D02*
X787730Y542200D01*
D13*
X367950Y625700D03*
D14*
X367950Y600300D03*
X367950Y574900D03*
X367950Y549500D03*
X367950Y524100D03*
X367950Y498700D03*
X367950Y473300D03*
X367950Y447900D03*
X367950Y422500D03*
X367950Y397100D03*
X367950Y371700D03*
X367950Y346300D03*
X367950Y320900D03*
X367950Y295500D03*
X367950Y270100D03*
X367950Y244700D03*
X367950Y219300D03*
X367950Y193900D03*
X367950Y168500D03*
X367950Y143100D03*
X522250Y143100D03*
X522250Y168500D03*
X522250Y193900D03*
X522250Y219300D03*
X522250Y244700D03*
X522250Y270100D03*
X522250Y295500D03*
X522250Y320900D03*
X522250Y346300D03*
X522250Y371700D03*
X522250Y397100D03*
X522250Y422500D03*
X522250Y447900D03*
X522250Y473300D03*
X522250Y498700D03*
X522250Y524100D03*
X522250Y549500D03*
X522250Y574900D03*
X522250Y600300D03*
X522250Y625700D03*
D15*
X754700Y749300D02*
X774700Y749300D01*
X774700Y810300D02*
X754700Y810300D01*
X716700Y790300D02*
X716700Y770300D01*
D16*
X723100Y94000D03*
X748500Y94000D03*
X723100Y68600D03*
X748500Y68600D03*
X723100Y43200D03*
X748500Y43200D03*
D17*
X111304Y203500D02*
X98096Y203500D01*
X174296Y178100D02*
X187504Y178100D01*
X60504Y178100D02*
X47296Y178100D01*
D18*
X641500Y300000D03*
X658500Y300000D03*
X641500Y260000D03*
X658500Y260000D03*
X448800Y685000D03*
X465800Y685000D03*
X68900Y550000D03*
X85900Y550000D03*
X408700Y686000D03*
X425700Y686000D03*
X150600Y686000D03*
X167600Y686000D03*
X102500Y686000D03*
X119500Y686000D03*
X588400Y684000D03*
X605400Y684000D03*
X543300Y684000D03*
X560300Y684000D03*
X273800Y550000D03*
X290800Y550000D03*
X641500Y540000D03*
X658500Y540000D03*
X641500Y500000D03*
X658500Y500000D03*
X641500Y460000D03*
X658500Y460000D03*
X641500Y420000D03*
X658500Y420000D03*
X641500Y380000D03*
X658500Y380000D03*
X641500Y340000D03*
X658500Y340000D03*
D19*
X135400Y459500D03*
X172100Y459500D03*
X135300Y422800D03*
X172100Y422800D03*
D20*
X396886Y729012D03*
X420000Y729012D03*
X443114Y729012D03*
D21*
X420000Y790990D03*
D20*
X142886Y777012D03*
X166000Y777012D03*
X189114Y777012D03*
D21*
X166000Y838990D03*
D20*
X586886Y729012D03*
X610000Y729012D03*
X633114Y729012D03*
D21*
X610000Y790990D03*
D22*
X464820Y690880D02*
X464820Y685800D01*
X464820Y690880D02*
X445770Y709930D01*
X433070Y709930D01*
X430530Y712470D02*
X420370Y722630D01*
X430530Y712470D02*
X433070Y709930D01*
X420370Y722630D02*
X420370Y728980D01*
X464820Y685800D02*
X465800Y685000D01*
X420370Y728980D02*
X420000Y729012D01*
X363220Y674370D02*
X363220Y645160D01*
X353060Y635000D01*
X353060Y538480D01*
X367030Y524510D01*
X363220Y674370D02*
X363600Y675200D01*
X367030Y524510D02*
X367950Y524100D01*
X424180Y706120D02*
X430530Y712470D01*
X393700Y675640D02*
X372110Y675640D01*
X370840Y674370D01*
X365760Y674370D01*
X363600Y675200D01*
X368300Y224790D02*
X368300Y219710D01*
X478790Y335280D02*
X508000Y364490D01*
X478790Y335280D02*
X393700Y250190D01*
X368300Y224790D01*
X508000Y364490D02*
X508000Y382270D01*
X521970Y396240D01*
X368300Y219710D02*
X367950Y219300D01*
X521970Y396240D02*
X522250Y397100D01*
X760730Y87636D02*
X760730Y82550D01*
X775970Y67310D01*
X775970Y30480D01*
X767810Y22320D01*
X621570Y22320D01*
X393700Y250190D01*
X748500Y94000D02*
X760730Y87636D01*
X368300Y519430D02*
X368300Y521970D01*
X368300Y519430D02*
X467360Y420370D01*
X467360Y346710D01*
X478790Y335280D01*
X368300Y521970D02*
X367950Y524100D01*
D23*
X424180Y706120D03*
X393700Y675640D03*
D22*
X363600Y686800D02*
X363220Y687070D01*
X274320Y551180D02*
X273800Y550000D01*
X365760Y687070D02*
X407670Y687070D01*
X408700Y686000D01*
X365760Y687070D02*
X363600Y686800D01*
X486410Y683260D02*
X542290Y683260D01*
X486410Y683260D02*
X474980Y671830D01*
X417830Y671830D01*
X410210Y679450D01*
X410210Y684530D01*
X542290Y683260D02*
X543300Y684000D01*
X410210Y684530D02*
X408700Y686000D01*
X808990Y499110D02*
X808990Y461010D01*
X808770Y460000D01*
X808990Y499110D02*
X808770Y500000D01*
X808990Y501650D02*
X808990Y539750D01*
X808770Y540000D01*
X808990Y501650D02*
X808770Y500000D01*
X808990Y419100D02*
X808990Y381000D01*
X808770Y380000D01*
X808990Y419100D02*
X808770Y420000D01*
X808990Y299720D02*
X808990Y260350D01*
X808770Y260000D01*
X808990Y299720D02*
X808770Y300000D01*
X808990Y302260D02*
X808990Y339090D01*
X808770Y340000D01*
X808990Y302260D02*
X808770Y300000D01*
X808990Y341630D02*
X808990Y378460D01*
X808770Y380000D01*
X808990Y341630D02*
X808770Y340000D01*
X808990Y421640D02*
X808990Y458470D01*
X808770Y460000D01*
X808990Y421640D02*
X808770Y420000D01*
X419100Y859790D02*
X406400Y859790D01*
X405800Y860000D01*
X697230Y676910D02*
X704850Y676910D01*
X697230Y676910D02*
X696400Y677200D01*
X102870Y687070D02*
X102870Y701040D01*
X102870Y687070D02*
X102500Y686000D01*
X807720Y574040D02*
X807720Y542290D01*
X715010Y666750D02*
X704850Y676910D01*
X715010Y666750D02*
X807720Y574040D01*
X807720Y542290D02*
X808770Y540000D01*
X275590Y543560D02*
X275590Y548640D01*
X275590Y543560D02*
X320040Y499110D01*
X367030Y499110D01*
X275590Y548640D02*
X273800Y550000D01*
X367030Y499110D02*
X367950Y498700D01*
D23*
X419100Y859790D03*
X102870Y701040D03*
D22*
X284480Y680720D02*
X349250Y680720D01*
X284480Y680720D02*
X274320Y680720D01*
X254000Y680720D01*
X349250Y680720D02*
X355600Y687070D01*
X360680Y687070D01*
X254000Y680720D02*
X253300Y680000D01*
X360680Y687070D02*
X363600Y686800D01*
X274320Y680720D02*
X274320Y553720D01*
X273800Y550000D01*
X284480Y680720D02*
X284480Y715010D01*
X285000Y716200D01*
D24*
X685800Y730250D02*
X685800Y749300D01*
X716280Y779780D01*
X685800Y730250D02*
X684800Y729000D01*
X716280Y779780D02*
X716700Y780300D01*
X717550Y779780D02*
X765810Y779780D01*
X789940Y755650D01*
X789940Y741680D01*
X715010Y666750D01*
X717550Y779780D02*
X716700Y780300D01*
D22*
X695960Y689610D02*
X610870Y689610D01*
X605790Y684530D01*
X695960Y689610D02*
X696400Y688800D01*
X605790Y684530D02*
X605400Y684000D01*
X610870Y689610D02*
X610870Y728980D01*
X610000Y729012D01*
X478790Y603250D02*
X478790Y351790D01*
X478790Y603250D02*
X546100Y670560D01*
X596900Y670560D01*
X604520Y678180D01*
X604520Y681990D01*
X605400Y684000D01*
D23*
X478790Y351790D03*
D22*
X86360Y551180D02*
X86360Y599440D01*
X86360Y551180D02*
X85900Y550000D01*
X166370Y685800D02*
X167600Y686000D01*
X168910Y776927D02*
X166000Y777012D01*
X168910Y687070D02*
X167600Y686000D01*
X171450Y421640D02*
X154940Y421640D01*
X140970Y407670D01*
X129540Y407670D01*
X87630Y449580D01*
X87630Y548640D01*
X172100Y422800D02*
X171450Y421640D01*
X87630Y548640D02*
X85900Y550000D01*
X177800Y680720D02*
X241300Y680720D01*
X177800Y680720D02*
X171450Y687070D01*
X241300Y680720D02*
X241700Y680000D01*
X171450Y687070D02*
X167600Y686000D01*
X168910Y689610D02*
X168910Y774700D01*
X166000Y777012D01*
X168910Y689610D02*
X167600Y686000D01*
X166370Y683260D02*
X166370Y679450D01*
X86360Y599440D01*
X166370Y683260D02*
X167600Y686000D01*
D25*
X607060Y541020D02*
X641350Y541020D01*
X607060Y541020D02*
X523240Y624840D01*
X641350Y541020D02*
X641500Y540000D01*
X523240Y624840D02*
X522250Y625700D01*
X659130Y541020D02*
X791210Y541020D01*
X791230Y540000D01*
X659130Y541020D02*
X658500Y540000D01*
X641350Y500380D02*
X622300Y500380D01*
X523240Y599440D01*
X641350Y500380D02*
X641500Y500000D01*
X523240Y599440D02*
X522250Y600300D01*
X659130Y500380D02*
X791210Y500380D01*
X791230Y500000D01*
X659130Y500380D02*
X658500Y500000D01*
X641350Y461010D02*
X636270Y461010D01*
X523240Y574040D01*
X641350Y461010D02*
X641500Y460000D01*
X523240Y574040D02*
X522250Y574900D01*
X659130Y461010D02*
X791210Y461010D01*
X791230Y460000D01*
X659130Y461010D02*
X658500Y460000D01*
X641350Y430530D02*
X641350Y420370D01*
X641350Y430530D02*
X523240Y548640D01*
X641350Y420370D02*
X641500Y420000D01*
X523240Y548640D02*
X522250Y549500D01*
X659130Y420370D02*
X791210Y420370D01*
X791230Y420000D01*
X659130Y420370D02*
X658500Y420000D01*
X641350Y403860D02*
X641350Y381000D01*
X641350Y403860D02*
X521970Y523240D01*
X641350Y381000D02*
X641500Y380000D01*
X521970Y523240D02*
X522250Y524100D01*
X659130Y381000D02*
X791210Y381000D01*
X791230Y380000D01*
X659130Y381000D02*
X658500Y380000D01*
X641350Y363220D02*
X641350Y340360D01*
X641350Y363220D02*
X533400Y471170D01*
X533400Y487680D01*
X523240Y497840D01*
X641350Y340360D02*
X641500Y340000D01*
X523240Y497840D02*
X522250Y498700D01*
X659130Y340360D02*
X791210Y340360D01*
X791230Y340000D01*
X659130Y340360D02*
X658500Y340000D01*
X641350Y323850D02*
X641350Y300990D01*
X641350Y323850D02*
X541020Y424180D01*
X541020Y441960D01*
X533400Y449580D01*
X533400Y462280D01*
X523240Y472440D01*
X641350Y300990D02*
X641500Y300000D01*
X523240Y472440D02*
X522250Y473300D01*
X659130Y300990D02*
X791210Y300990D01*
X791230Y300000D01*
X659130Y300990D02*
X658500Y300000D01*
X641350Y283210D02*
X641350Y260350D01*
X641350Y283210D02*
X535940Y388620D01*
X535940Y434340D01*
X523240Y447040D01*
X641350Y260350D02*
X641500Y260000D01*
X523240Y447040D02*
X522250Y447900D01*
X659130Y260350D02*
X791210Y260350D01*
X791230Y260000D01*
X659130Y260350D02*
X658500Y260000D01*
D22*
X636270Y732790D02*
X636270Y748030D01*
X636270Y732790D02*
X633730Y730250D01*
X672250Y728790D02*
X673200Y729000D01*
X633730Y730250D02*
X633114Y729012D01*
X393700Y777240D02*
X393700Y859790D01*
X393700Y777240D02*
X422910Y748030D01*
X429260Y748030D01*
X441960Y735330D01*
X441960Y730250D01*
X393700Y859790D02*
X394200Y860000D01*
X441960Y730250D02*
X443114Y729012D01*
X454660Y748030D02*
X636270Y748030D01*
X454660Y748030D02*
X443230Y736600D01*
X443114Y729012D01*
X633114Y729012D02*
X636270Y730250D01*
X189230Y775970D02*
X189114Y777012D01*
X191770Y775970D01*
X241300Y728980D02*
X284480Y728980D01*
X241300Y728980D02*
X194310Y775970D01*
X284480Y728980D02*
X285000Y727800D01*
X194310Y775970D02*
X189114Y777012D01*
X287020Y728980D02*
X345440Y728980D01*
X393700Y777240D01*
X287020Y728980D02*
X285000Y727800D01*
D24*
X638810Y730250D02*
X670560Y730250D01*
X673200Y729000D01*
X638810Y730250D02*
X633114Y729012D01*
X673100Y726440D02*
X675640Y723900D01*
X675640Y722630D01*
X679450Y718820D01*
X734060Y718820D01*
X764540Y749300D01*
X673200Y729000D02*
X673100Y726440D01*
X764540Y749300D02*
X764700Y749300D01*
D25*
X448310Y685800D02*
X426720Y685800D01*
X425700Y686000D01*
X448310Y685800D02*
X448800Y685000D01*
X425450Y687070D02*
X425450Y689610D01*
X397510Y717550D01*
X397510Y728980D01*
X425450Y687070D02*
X425700Y686000D01*
X397510Y728980D02*
X396886Y729012D01*
X149860Y687070D02*
X146050Y687070D01*
X120650Y687070D01*
X119500Y686000D01*
X149860Y687070D02*
X150600Y686000D01*
X146050Y687070D02*
X146050Y776891D01*
X146050Y687070D02*
X150600Y686000D01*
X146050Y776891D02*
X142886Y777012D01*
X561340Y684530D02*
X588010Y684530D01*
X561340Y684530D02*
X560300Y684000D01*
X588010Y684530D02*
X588400Y684000D01*
X588010Y685800D02*
X588010Y728980D01*
X588010Y685800D02*
X588400Y684000D01*
X588010Y728980D02*
X586886Y729012D01*
X367030Y422910D02*
X269240Y422910D01*
X246380Y445770D01*
X148590Y445770D01*
X147955Y446405D02*
X135890Y458470D01*
X147955Y446405D02*
X148590Y445770D01*
X367030Y422910D02*
X367950Y422500D01*
X135890Y458470D02*
X135400Y459500D01*
X135890Y434340D02*
X135890Y422910D01*
X135890Y434340D02*
X147955Y446405D01*
X135890Y422910D02*
X135300Y422800D01*
X290830Y544830D02*
X290830Y549910D01*
X290830Y544830D02*
X320040Y515620D01*
X242570Y438150D02*
X242570Y318770D01*
X102870Y179070D01*
X54610Y179070D01*
X290830Y549910D02*
X290800Y550000D01*
X54610Y179070D02*
X53900Y178100D01*
D23*
X320040Y515620D03*
X242570Y438150D03*
D25*
X523240Y370840D02*
X523240Y360680D01*
X727089Y156831D01*
X523240Y370840D02*
X522250Y371700D01*
X727089Y156831D02*
X723100Y94000D01*
X69850Y217760D02*
X69850Y549910D01*
X84110Y203500D02*
X104700Y203500D01*
X84110Y203500D02*
X69850Y217760D01*
X69850Y549910D02*
X68900Y550000D01*
M02*
