M48
;GenerationSoftware,Autodesk,EAGLE,9.5.0*%
;CreationDate,2019-12-12T11:43:59Z*%
FMAT,2
ICI,OFF
METRIC,TZ,000.000
T7C0.350
T6C0.784
T5C0.813
T4C0.850
T3C1.000
T2C1.016
T1C3.800
%
G90
M71
T1
X86300Y3700
X3700Y3700
X3700Y86300
X86300Y86300
T2
X72310Y6860
X74850Y9400
X72310Y9400
X72310Y4320
X74850Y6860
X74850Y4320
T3
X71670Y78030
X76470Y81030
X76470Y74930
T4
X17210Y42280
X13540Y45950
X17210Y45950
X13530Y42280
T5
X10470Y20350
X18090Y17810
X5390Y17810
T6
X36795Y39710
X36795Y37170
X36795Y34630
X36795Y32090
X36795Y29550
X36795Y27010
X36795Y24470
X36795Y21930
X36795Y19390
X36795Y16850
X36795Y14310
X52225Y14310
X52225Y16850
X36795Y49870
X52225Y21930
X52225Y24470
X52225Y27010
X52225Y29550
X52225Y32090
X52225Y34630
X52225Y37170
X52225Y39710
X52225Y42250
X52225Y44790
X52225Y47330
X52225Y49870
X52225Y52410
X52225Y54950
X52225Y57490
X52225Y60030
X36795Y62570
X52225Y19390
X36795Y60030
X36795Y57490
X36795Y54950
X36795Y52410
X36795Y47330
X36795Y44790
X36795Y42250
X52225Y62570
T7
X47879Y35179
X10287Y70104
X41910Y85979
X39370Y67564
X42418Y70612
X24257Y43815
X32004Y51562
M30