G04 EAGLE Gerber RS-274X export*
G75*
%MOMM*%
%FSLAX34Y34*%
%LPD*%
%INBottom Copper*%
%IPPOS*%
%AMOC8*
5,1,8,0,0,1.08239X$1,22.5*%
G01*
%ADD10R,1.292000X1.292000*%
%ADD11C,1.292000*%
%ADD12C,2.000000*%
%ADD13P,1.649562X8X292.500000*%
%ADD14C,1.320800*%
%ADD15C,1.358000*%
%ADD16C,0.508000*%
%ADD17C,0.756400*%
%ADD18C,0.254000*%

G36*
X848372Y10168D02*
X848372Y10168D01*
X848420Y10167D01*
X848492Y10188D01*
X848567Y10200D01*
X848610Y10223D01*
X848656Y10237D01*
X848718Y10280D01*
X848785Y10316D01*
X848818Y10350D01*
X848857Y10378D01*
X848902Y10439D01*
X848954Y10494D01*
X848974Y10537D01*
X849003Y10576D01*
X849026Y10648D01*
X849058Y10717D01*
X849063Y10765D01*
X849078Y10810D01*
X849076Y10886D01*
X849085Y10961D01*
X849075Y11008D01*
X849074Y11056D01*
X849049Y11128D01*
X849032Y11202D01*
X849008Y11243D01*
X848992Y11288D01*
X848945Y11348D01*
X848906Y11413D01*
X848870Y11444D01*
X848840Y11482D01*
X848737Y11558D01*
X848719Y11573D01*
X848713Y11575D01*
X848705Y11581D01*
X845095Y13666D01*
X839666Y19095D01*
X835827Y25744D01*
X833839Y33161D01*
X833839Y40839D01*
X835827Y48256D01*
X839666Y54905D01*
X845095Y60334D01*
X851744Y64173D01*
X859161Y66161D01*
X866839Y66161D01*
X874256Y64173D01*
X880905Y60334D01*
X886334Y54905D01*
X888419Y51295D01*
X888449Y51258D01*
X888472Y51215D01*
X888527Y51163D01*
X888575Y51105D01*
X888615Y51079D01*
X888650Y51046D01*
X888719Y51014D01*
X888783Y50974D01*
X888830Y50963D01*
X888873Y50942D01*
X888948Y50934D01*
X889022Y50916D01*
X889070Y50921D01*
X889117Y50915D01*
X889192Y50931D01*
X889267Y50938D01*
X889311Y50957D01*
X889358Y50968D01*
X889423Y51006D01*
X889492Y51037D01*
X889528Y51069D01*
X889569Y51094D01*
X889618Y51151D01*
X889674Y51202D01*
X889698Y51244D01*
X889729Y51281D01*
X889757Y51351D01*
X889794Y51417D01*
X889803Y51464D01*
X889821Y51509D01*
X889835Y51637D01*
X889839Y51659D01*
X889838Y51665D01*
X889839Y51675D01*
X889839Y848325D01*
X889838Y848333D01*
X889838Y848336D01*
X889834Y848354D01*
X889832Y848372D01*
X889833Y848420D01*
X889812Y848492D01*
X889800Y848567D01*
X889777Y848610D01*
X889763Y848656D01*
X889720Y848718D01*
X889684Y848785D01*
X889650Y848818D01*
X889622Y848857D01*
X889561Y848902D01*
X889506Y848954D01*
X889463Y848974D01*
X889424Y849003D01*
X889352Y849026D01*
X889283Y849058D01*
X889235Y849063D01*
X889190Y849078D01*
X889114Y849076D01*
X889039Y849085D01*
X888992Y849075D01*
X888944Y849074D01*
X888872Y849049D01*
X888798Y849032D01*
X888757Y849008D01*
X888712Y848992D01*
X888652Y848945D01*
X888587Y848906D01*
X888556Y848870D01*
X888518Y848840D01*
X888442Y848737D01*
X888427Y848719D01*
X888425Y848713D01*
X888419Y848705D01*
X886334Y845095D01*
X880905Y839666D01*
X874256Y835827D01*
X866839Y833839D01*
X859161Y833839D01*
X851744Y835827D01*
X845095Y839666D01*
X839666Y845095D01*
X835827Y851744D01*
X833839Y859161D01*
X833839Y866839D01*
X835827Y874256D01*
X839666Y880905D01*
X845095Y886334D01*
X845106Y886341D01*
X845143Y886371D01*
X845185Y886394D01*
X845237Y886448D01*
X845296Y886497D01*
X845322Y886537D01*
X845355Y886572D01*
X845387Y886641D01*
X845427Y886705D01*
X845438Y886751D01*
X845458Y886795D01*
X845467Y886870D01*
X845484Y886944D01*
X845480Y886992D01*
X845485Y887039D01*
X845469Y887114D01*
X845463Y887189D01*
X845443Y887233D01*
X845433Y887280D01*
X845394Y887345D01*
X845364Y887414D01*
X845332Y887450D01*
X845307Y887491D01*
X845249Y887540D01*
X845198Y887596D01*
X845157Y887620D01*
X845120Y887651D01*
X845050Y887679D01*
X844984Y887716D01*
X844937Y887725D01*
X844892Y887743D01*
X844764Y887757D01*
X844742Y887761D01*
X844735Y887760D01*
X844725Y887761D01*
X55275Y887761D01*
X55227Y887754D01*
X55179Y887755D01*
X55107Y887734D01*
X55032Y887722D01*
X54990Y887699D01*
X54944Y887685D01*
X54881Y887642D01*
X54815Y887606D01*
X54782Y887572D01*
X54742Y887544D01*
X54697Y887483D01*
X54645Y887428D01*
X54625Y887385D01*
X54597Y887346D01*
X54574Y887274D01*
X54542Y887205D01*
X54536Y887157D01*
X54522Y887112D01*
X54523Y887036D01*
X54515Y886961D01*
X54525Y886914D01*
X54525Y886866D01*
X54551Y886794D01*
X54567Y886720D01*
X54591Y886679D01*
X54607Y886634D01*
X54654Y886574D01*
X54693Y886509D01*
X54729Y886478D01*
X54759Y886440D01*
X54863Y886364D01*
X54880Y886349D01*
X54886Y886347D01*
X54894Y886341D01*
X54905Y886334D01*
X60334Y880905D01*
X64173Y874256D01*
X66161Y866839D01*
X66161Y859161D01*
X64173Y851744D01*
X60334Y845095D01*
X54905Y839666D01*
X48256Y835827D01*
X40839Y833839D01*
X33161Y833839D01*
X25744Y835827D01*
X19095Y839666D01*
X13666Y845095D01*
X13659Y845106D01*
X13629Y845143D01*
X13606Y845185D01*
X13552Y845237D01*
X13504Y845296D01*
X13463Y845322D01*
X13428Y845355D01*
X13359Y845387D01*
X13295Y845427D01*
X13249Y845438D01*
X13205Y845458D01*
X13130Y845467D01*
X13056Y845484D01*
X13008Y845480D01*
X12961Y845485D01*
X12887Y845469D01*
X12811Y845463D01*
X12767Y845443D01*
X12720Y845433D01*
X12655Y845394D01*
X12586Y845364D01*
X12550Y845332D01*
X12509Y845307D01*
X12460Y845250D01*
X12404Y845199D01*
X12380Y845157D01*
X12349Y845120D01*
X12321Y845050D01*
X12284Y844984D01*
X12275Y844937D01*
X12257Y844892D01*
X12243Y844764D01*
X12239Y844742D01*
X12240Y844735D01*
X12239Y844725D01*
X12239Y55275D01*
X12247Y55227D01*
X12245Y55179D01*
X12266Y55107D01*
X12279Y55032D01*
X12301Y54990D01*
X12315Y54943D01*
X12358Y54881D01*
X12394Y54815D01*
X12428Y54782D01*
X12456Y54742D01*
X12517Y54697D01*
X12572Y54645D01*
X12616Y54625D01*
X12654Y54597D01*
X12726Y54574D01*
X12795Y54542D01*
X12843Y54536D01*
X12889Y54522D01*
X12964Y54523D01*
X13039Y54515D01*
X13086Y54525D01*
X13135Y54525D01*
X13206Y54551D01*
X13280Y54567D01*
X13321Y54591D01*
X13366Y54607D01*
X13426Y54654D01*
X13491Y54693D01*
X13522Y54729D01*
X13560Y54759D01*
X13636Y54863D01*
X13651Y54880D01*
X13653Y54886D01*
X13659Y54894D01*
X13666Y54905D01*
X19095Y60334D01*
X25744Y64173D01*
X33161Y66161D01*
X40839Y66161D01*
X48256Y64173D01*
X54905Y60334D01*
X60334Y54905D01*
X64173Y48256D01*
X66161Y40839D01*
X66161Y33161D01*
X64173Y25744D01*
X60334Y19095D01*
X54905Y13666D01*
X51295Y11581D01*
X51258Y11551D01*
X51215Y11528D01*
X51163Y11473D01*
X51105Y11425D01*
X51079Y11385D01*
X51046Y11350D01*
X51014Y11281D01*
X50974Y11217D01*
X50963Y11170D01*
X50942Y11127D01*
X50934Y11052D01*
X50916Y10978D01*
X50921Y10930D01*
X50915Y10883D01*
X50931Y10808D01*
X50938Y10733D01*
X50957Y10689D01*
X50968Y10642D01*
X51006Y10577D01*
X51037Y10508D01*
X51069Y10472D01*
X51094Y10431D01*
X51151Y10382D01*
X51202Y10326D01*
X51244Y10302D01*
X51281Y10271D01*
X51351Y10243D01*
X51417Y10206D01*
X51464Y10197D01*
X51509Y10179D01*
X51637Y10165D01*
X51659Y10161D01*
X51665Y10162D01*
X51675Y10161D01*
X848325Y10161D01*
X848372Y10168D01*
G37*
%LPC*%
G36*
X366059Y235191D02*
X366059Y235191D01*
X362564Y236639D01*
X359889Y239314D01*
X358441Y242809D01*
X358441Y246591D01*
X359889Y250086D01*
X362564Y252761D01*
X366059Y254209D01*
X369841Y254209D01*
X370923Y253761D01*
X371036Y253734D01*
X371150Y253706D01*
X371156Y253706D01*
X371162Y253705D01*
X371279Y253716D01*
X371395Y253725D01*
X371401Y253727D01*
X371407Y253728D01*
X371514Y253775D01*
X371621Y253821D01*
X371627Y253826D01*
X371632Y253828D01*
X371645Y253840D01*
X371752Y253926D01*
X372345Y254519D01*
X374024Y256198D01*
X376078Y257049D01*
X377100Y257049D01*
X377190Y257063D01*
X377281Y257071D01*
X377311Y257083D01*
X377342Y257088D01*
X377423Y257131D01*
X377507Y257167D01*
X377539Y257193D01*
X377560Y257204D01*
X377582Y257227D01*
X377638Y257272D01*
X471736Y351370D01*
X471789Y351444D01*
X471849Y351513D01*
X471861Y351544D01*
X471880Y351570D01*
X471907Y351657D01*
X471941Y351742D01*
X471945Y351782D01*
X471952Y351805D01*
X471951Y351837D01*
X471959Y351908D01*
X471959Y353149D01*
X472999Y355659D01*
X474921Y357581D01*
X477431Y358621D01*
X480149Y358621D01*
X482659Y357581D01*
X484581Y355659D01*
X485621Y353149D01*
X485621Y350431D01*
X484581Y347921D01*
X482659Y345999D01*
X481969Y345713D01*
X481913Y345679D01*
X481853Y345653D01*
X481788Y345601D01*
X481760Y345584D01*
X481747Y345569D01*
X481722Y345548D01*
X382896Y246722D01*
X380842Y245871D01*
X379820Y245871D01*
X379730Y245857D01*
X379639Y245849D01*
X379609Y245837D01*
X379578Y245832D01*
X379497Y245789D01*
X379413Y245753D01*
X379381Y245727D01*
X379360Y245716D01*
X379338Y245693D01*
X379282Y245648D01*
X377682Y244048D01*
X377629Y243974D01*
X377569Y243905D01*
X377557Y243874D01*
X377538Y243848D01*
X377511Y243761D01*
X377477Y243676D01*
X377473Y243636D01*
X377466Y243613D01*
X377467Y243581D01*
X377459Y243510D01*
X377459Y242809D01*
X376011Y239314D01*
X373336Y236639D01*
X369841Y235191D01*
X366059Y235191D01*
G37*
%LPD*%
%LPC*%
G36*
X241211Y431319D02*
X241211Y431319D01*
X238701Y432359D01*
X236779Y434281D01*
X235739Y436791D01*
X235739Y439509D01*
X236779Y442019D01*
X238701Y443941D01*
X241211Y444981D01*
X242978Y444981D01*
X243068Y444995D01*
X243159Y445003D01*
X243189Y445015D01*
X243221Y445020D01*
X243301Y445063D01*
X243385Y445099D01*
X243417Y445125D01*
X243438Y445136D01*
X243460Y445159D01*
X243516Y445204D01*
X312986Y514674D01*
X313039Y514748D01*
X313099Y514817D01*
X313111Y514847D01*
X313130Y514874D01*
X313157Y514961D01*
X313191Y515045D01*
X313195Y515086D01*
X313202Y515109D01*
X313201Y515141D01*
X313209Y515212D01*
X313209Y516979D01*
X314249Y519489D01*
X316171Y521411D01*
X318681Y522451D01*
X321399Y522451D01*
X323909Y521411D01*
X325831Y519489D01*
X326871Y516979D01*
X326871Y514261D01*
X325831Y511751D01*
X323909Y509829D01*
X321399Y508789D01*
X319632Y508789D01*
X319542Y508775D01*
X319451Y508767D01*
X319421Y508755D01*
X319389Y508750D01*
X319309Y508707D01*
X319225Y508671D01*
X319193Y508645D01*
X319172Y508634D01*
X319163Y508625D01*
X319162Y508625D01*
X319148Y508609D01*
X319094Y508566D01*
X249624Y439096D01*
X249571Y439022D01*
X249511Y438953D01*
X249499Y438923D01*
X249480Y438896D01*
X249453Y438809D01*
X249419Y438725D01*
X249415Y438684D01*
X249408Y438661D01*
X249409Y438629D01*
X249401Y438558D01*
X249401Y436791D01*
X248361Y434281D01*
X246439Y432359D01*
X243929Y431319D01*
X241211Y431319D01*
G37*
%LPD*%
%LPC*%
G36*
X752104Y736251D02*
X752104Y736251D01*
X747308Y738238D01*
X743638Y741908D01*
X741651Y746704D01*
X741651Y751896D01*
X743638Y756692D01*
X747308Y760362D01*
X752104Y762349D01*
X777296Y762349D01*
X782092Y760362D01*
X785762Y756692D01*
X787749Y751896D01*
X787749Y746704D01*
X785762Y741908D01*
X782092Y738238D01*
X777296Y736251D01*
X752104Y736251D01*
G37*
%LPD*%
%LPC*%
G36*
X392341Y668809D02*
X392341Y668809D01*
X389831Y669849D01*
X387909Y671771D01*
X386869Y674281D01*
X386869Y676999D01*
X387909Y679509D01*
X389831Y681431D01*
X392361Y682479D01*
X392402Y682485D01*
X392493Y682493D01*
X392523Y682505D01*
X392554Y682510D01*
X392635Y682553D01*
X392719Y682589D01*
X392751Y682615D01*
X392772Y682626D01*
X392794Y682649D01*
X392850Y682694D01*
X417126Y706970D01*
X417175Y707037D01*
X417175Y707038D01*
X417179Y707044D01*
X417239Y707113D01*
X417251Y707144D01*
X417270Y707170D01*
X417297Y707257D01*
X417331Y707342D01*
X417335Y707382D01*
X417342Y707405D01*
X417341Y707437D01*
X417345Y707468D01*
X418389Y709989D01*
X420311Y711911D01*
X422821Y712951D01*
X425539Y712951D01*
X428049Y711911D01*
X429971Y709989D01*
X431011Y707479D01*
X431011Y704761D01*
X429971Y702251D01*
X428049Y700329D01*
X425519Y699281D01*
X425478Y699275D01*
X425387Y699267D01*
X425357Y699255D01*
X425326Y699250D01*
X425245Y699207D01*
X425161Y699171D01*
X425129Y699145D01*
X425108Y699134D01*
X425086Y699111D01*
X425030Y699066D01*
X400754Y674790D01*
X400701Y674716D01*
X400641Y674647D01*
X400629Y674616D01*
X400610Y674590D01*
X400583Y674503D01*
X400549Y674418D01*
X400545Y674378D01*
X400538Y674355D01*
X400539Y674323D01*
X400535Y674292D01*
X399491Y671771D01*
X397569Y669849D01*
X395059Y668809D01*
X392341Y668809D01*
G37*
%LPD*%
%LPC*%
G36*
X45376Y168447D02*
X45376Y168447D01*
X41828Y169917D01*
X39113Y172632D01*
X37643Y176180D01*
X37643Y180020D01*
X39113Y183568D01*
X41828Y186283D01*
X45376Y187753D01*
X62424Y187753D01*
X65972Y186283D01*
X68687Y183568D01*
X70157Y180020D01*
X70157Y176180D01*
X68687Y172632D01*
X65972Y169917D01*
X62424Y168447D01*
X45376Y168447D01*
G37*
%LPD*%
%LPC*%
G36*
X172376Y168447D02*
X172376Y168447D01*
X168828Y169917D01*
X166113Y172632D01*
X164643Y176180D01*
X164643Y180020D01*
X166113Y183568D01*
X168828Y186283D01*
X172376Y187753D01*
X189424Y187753D01*
X192972Y186283D01*
X195687Y183568D01*
X197157Y180020D01*
X197157Y176180D01*
X195687Y172632D01*
X192972Y169917D01*
X189424Y168447D01*
X172376Y168447D01*
G37*
%LPD*%
%LPC*%
G36*
X96176Y193847D02*
X96176Y193847D01*
X92628Y195317D01*
X89913Y198032D01*
X88443Y201580D01*
X88443Y205420D01*
X89913Y208968D01*
X92628Y211683D01*
X96176Y213153D01*
X113224Y213153D01*
X116772Y211683D01*
X119487Y208968D01*
X120957Y205420D01*
X120957Y201580D01*
X119487Y198032D01*
X116772Y195317D01*
X113224Y193847D01*
X96176Y193847D01*
G37*
%LPD*%
%LPC*%
G36*
X718681Y83331D02*
X718681Y83331D01*
X712431Y89581D01*
X712431Y98419D01*
X718681Y104669D01*
X727519Y104669D01*
X733769Y98419D01*
X733769Y89581D01*
X727519Y83331D01*
X718681Y83331D01*
G37*
%LPD*%
%LPC*%
G36*
X744081Y83331D02*
X744081Y83331D01*
X737831Y89581D01*
X737831Y98419D01*
X744081Y104669D01*
X752919Y104669D01*
X759169Y98419D01*
X759169Y89581D01*
X752919Y83331D01*
X744081Y83331D01*
G37*
%LPD*%
%LPC*%
G36*
X744081Y57931D02*
X744081Y57931D01*
X737831Y64181D01*
X737831Y73019D01*
X744081Y79269D01*
X752919Y79269D01*
X759169Y73019D01*
X759169Y64181D01*
X752919Y57931D01*
X744081Y57931D01*
G37*
%LPD*%
%LPC*%
G36*
X718681Y57931D02*
X718681Y57931D01*
X712431Y64181D01*
X712431Y73019D01*
X718681Y79269D01*
X727519Y79269D01*
X733769Y73019D01*
X733769Y64181D01*
X727519Y57931D01*
X718681Y57931D01*
G37*
%LPD*%
%LPC*%
G36*
X718681Y32531D02*
X718681Y32531D01*
X712431Y38781D01*
X712431Y47619D01*
X718681Y53869D01*
X727519Y53869D01*
X733769Y47619D01*
X733769Y38781D01*
X727519Y32531D01*
X718681Y32531D01*
G37*
%LPD*%
%LPC*%
G36*
X360227Y616191D02*
X360227Y616191D01*
X358441Y617977D01*
X358441Y633423D01*
X360227Y635209D01*
X375673Y635209D01*
X377459Y633423D01*
X377459Y617977D01*
X375673Y616191D01*
X360227Y616191D01*
G37*
%LPD*%
%LPC*%
G36*
X170143Y412961D02*
X170143Y412961D01*
X166527Y414459D01*
X163759Y417227D01*
X162261Y420843D01*
X162261Y424757D01*
X163759Y428373D01*
X166527Y431141D01*
X170143Y432639D01*
X174057Y432639D01*
X177673Y431141D01*
X180441Y428373D01*
X181939Y424757D01*
X181939Y420843D01*
X180441Y417227D01*
X177673Y414459D01*
X174057Y412961D01*
X170143Y412961D01*
G37*
%LPD*%
%LPC*%
G36*
X133343Y412961D02*
X133343Y412961D01*
X129727Y414459D01*
X126959Y417227D01*
X125461Y420843D01*
X125461Y424757D01*
X126959Y428373D01*
X129727Y431141D01*
X133343Y432639D01*
X137257Y432639D01*
X140873Y431141D01*
X143641Y428373D01*
X145139Y424757D01*
X145139Y420843D01*
X143641Y417227D01*
X140873Y414459D01*
X137257Y412961D01*
X133343Y412961D01*
G37*
%LPD*%
%LPC*%
G36*
X133443Y449661D02*
X133443Y449661D01*
X129827Y451159D01*
X127059Y453927D01*
X125561Y457543D01*
X125561Y461457D01*
X127059Y465073D01*
X129827Y467841D01*
X133443Y469339D01*
X137357Y469339D01*
X140973Y467841D01*
X143741Y465073D01*
X145239Y461457D01*
X145239Y457543D01*
X143741Y453927D01*
X140973Y451159D01*
X137357Y449661D01*
X133443Y449661D01*
G37*
%LPD*%
%LPC*%
G36*
X520359Y616191D02*
X520359Y616191D01*
X516864Y617639D01*
X514189Y620314D01*
X512741Y623809D01*
X512741Y627591D01*
X514189Y631086D01*
X516864Y633761D01*
X520359Y635209D01*
X524141Y635209D01*
X527636Y633761D01*
X530311Y631086D01*
X531759Y627591D01*
X531759Y623809D01*
X530311Y620314D01*
X527636Y617639D01*
X524141Y616191D01*
X520359Y616191D01*
G37*
%LPD*%
%LPC*%
G36*
X520359Y590791D02*
X520359Y590791D01*
X516864Y592239D01*
X514189Y594914D01*
X512741Y598409D01*
X512741Y602191D01*
X514189Y605686D01*
X516864Y608361D01*
X520359Y609809D01*
X524141Y609809D01*
X527636Y608361D01*
X530311Y605686D01*
X531759Y602191D01*
X531759Y598409D01*
X530311Y594914D01*
X527636Y592239D01*
X524141Y590791D01*
X520359Y590791D01*
G37*
%LPD*%
%LPC*%
G36*
X366059Y590791D02*
X366059Y590791D01*
X362564Y592239D01*
X359889Y594914D01*
X358441Y598409D01*
X358441Y602191D01*
X359889Y605686D01*
X362564Y608361D01*
X366059Y609809D01*
X369841Y609809D01*
X373336Y608361D01*
X376011Y605686D01*
X377459Y602191D01*
X377459Y598409D01*
X376011Y594914D01*
X373336Y592239D01*
X369841Y590791D01*
X366059Y590791D01*
G37*
%LPD*%
%LPC*%
G36*
X520359Y565391D02*
X520359Y565391D01*
X516864Y566839D01*
X514189Y569514D01*
X512741Y573009D01*
X512741Y576791D01*
X514189Y580286D01*
X516864Y582961D01*
X520359Y584409D01*
X524141Y584409D01*
X527636Y582961D01*
X530311Y580286D01*
X531759Y576791D01*
X531759Y573009D01*
X530311Y569514D01*
X527636Y566839D01*
X524141Y565391D01*
X520359Y565391D01*
G37*
%LPD*%
%LPC*%
G36*
X366059Y565391D02*
X366059Y565391D01*
X362564Y566839D01*
X359889Y569514D01*
X358441Y573009D01*
X358441Y576791D01*
X359889Y580286D01*
X362564Y582961D01*
X366059Y584409D01*
X369841Y584409D01*
X373336Y582961D01*
X376011Y580286D01*
X377459Y576791D01*
X377459Y573009D01*
X376011Y569514D01*
X373336Y566839D01*
X369841Y565391D01*
X366059Y565391D01*
G37*
%LPD*%
%LPC*%
G36*
X520359Y539991D02*
X520359Y539991D01*
X516864Y541439D01*
X514189Y544114D01*
X512741Y547609D01*
X512741Y551391D01*
X514189Y554886D01*
X516864Y557561D01*
X520359Y559009D01*
X524141Y559009D01*
X527636Y557561D01*
X530311Y554886D01*
X531759Y551391D01*
X531759Y547609D01*
X530311Y544114D01*
X527636Y541439D01*
X524141Y539991D01*
X520359Y539991D01*
G37*
%LPD*%
%LPC*%
G36*
X520359Y514591D02*
X520359Y514591D01*
X516864Y516039D01*
X514189Y518714D01*
X512741Y522209D01*
X512741Y525991D01*
X514189Y529486D01*
X516864Y532161D01*
X520359Y533609D01*
X524141Y533609D01*
X527636Y532161D01*
X530311Y529486D01*
X531759Y525991D01*
X531759Y522209D01*
X530311Y518714D01*
X527636Y516039D01*
X524141Y514591D01*
X520359Y514591D01*
G37*
%LPD*%
%LPC*%
G36*
X366059Y514591D02*
X366059Y514591D01*
X362564Y516039D01*
X359889Y518714D01*
X358441Y522209D01*
X358441Y525991D01*
X359889Y529486D01*
X362564Y532161D01*
X366059Y533609D01*
X369841Y533609D01*
X373336Y532161D01*
X376011Y529486D01*
X377459Y525991D01*
X377459Y522209D01*
X376011Y518714D01*
X373336Y516039D01*
X369841Y514591D01*
X366059Y514591D01*
G37*
%LPD*%
%LPC*%
G36*
X520359Y489191D02*
X520359Y489191D01*
X516864Y490639D01*
X514189Y493314D01*
X512741Y496809D01*
X512741Y500591D01*
X514189Y504086D01*
X516864Y506761D01*
X520359Y508209D01*
X524141Y508209D01*
X527636Y506761D01*
X530311Y504086D01*
X531759Y500591D01*
X531759Y496809D01*
X530311Y493314D01*
X527636Y490639D01*
X524141Y489191D01*
X520359Y489191D01*
G37*
%LPD*%
%LPC*%
G36*
X520359Y285991D02*
X520359Y285991D01*
X516864Y287439D01*
X514189Y290114D01*
X512741Y293609D01*
X512741Y297391D01*
X514189Y300886D01*
X516864Y303561D01*
X520359Y305009D01*
X524141Y305009D01*
X527636Y303561D01*
X530311Y300886D01*
X531759Y297391D01*
X531759Y293609D01*
X530311Y290114D01*
X527636Y287439D01*
X524141Y285991D01*
X520359Y285991D01*
G37*
%LPD*%
%LPC*%
G36*
X366059Y311391D02*
X366059Y311391D01*
X362564Y312839D01*
X359889Y315514D01*
X358441Y319009D01*
X358441Y322791D01*
X359889Y326286D01*
X362564Y328961D01*
X366059Y330409D01*
X369841Y330409D01*
X373336Y328961D01*
X376011Y326286D01*
X377459Y322791D01*
X377459Y319009D01*
X376011Y315514D01*
X373336Y312839D01*
X369841Y311391D01*
X366059Y311391D01*
G37*
%LPD*%
%LPC*%
G36*
X520359Y311391D02*
X520359Y311391D01*
X516864Y312839D01*
X514189Y315514D01*
X512741Y319009D01*
X512741Y322791D01*
X514189Y326286D01*
X516864Y328961D01*
X520359Y330409D01*
X524141Y330409D01*
X527636Y328961D01*
X530311Y326286D01*
X531759Y322791D01*
X531759Y319009D01*
X530311Y315514D01*
X527636Y312839D01*
X524141Y311391D01*
X520359Y311391D01*
G37*
%LPD*%
%LPC*%
G36*
X366059Y336791D02*
X366059Y336791D01*
X362564Y338239D01*
X359889Y340914D01*
X358441Y344409D01*
X358441Y348191D01*
X359889Y351686D01*
X362564Y354361D01*
X366059Y355809D01*
X369841Y355809D01*
X373336Y354361D01*
X376011Y351686D01*
X377459Y348191D01*
X377459Y344409D01*
X376011Y340914D01*
X373336Y338239D01*
X369841Y336791D01*
X366059Y336791D01*
G37*
%LPD*%
%LPC*%
G36*
X520359Y463791D02*
X520359Y463791D01*
X516864Y465239D01*
X514189Y467914D01*
X512741Y471409D01*
X512741Y475191D01*
X514189Y478686D01*
X516864Y481361D01*
X520359Y482809D01*
X524141Y482809D01*
X527636Y481361D01*
X530311Y478686D01*
X531759Y475191D01*
X531759Y471409D01*
X530311Y467914D01*
X527636Y465239D01*
X524141Y463791D01*
X520359Y463791D01*
G37*
%LPD*%
%LPC*%
G36*
X366059Y463791D02*
X366059Y463791D01*
X362564Y465239D01*
X359889Y467914D01*
X358441Y471409D01*
X358441Y475191D01*
X359889Y478686D01*
X362564Y481361D01*
X366059Y482809D01*
X369841Y482809D01*
X373336Y481361D01*
X376011Y478686D01*
X377459Y475191D01*
X377459Y471409D01*
X376011Y467914D01*
X373336Y465239D01*
X369841Y463791D01*
X366059Y463791D01*
G37*
%LPD*%
%LPC*%
G36*
X520359Y336791D02*
X520359Y336791D01*
X516864Y338239D01*
X514189Y340914D01*
X512741Y344409D01*
X512741Y348191D01*
X514189Y351686D01*
X516864Y354361D01*
X520359Y355809D01*
X524141Y355809D01*
X527636Y354361D01*
X530311Y351686D01*
X531759Y348191D01*
X531759Y344409D01*
X530311Y340914D01*
X527636Y338239D01*
X524141Y336791D01*
X520359Y336791D01*
G37*
%LPD*%
%LPC*%
G36*
X366059Y362191D02*
X366059Y362191D01*
X362564Y363639D01*
X359889Y366314D01*
X358441Y369809D01*
X358441Y373591D01*
X359889Y377086D01*
X362564Y379761D01*
X366059Y381209D01*
X369841Y381209D01*
X373336Y379761D01*
X376011Y377086D01*
X377459Y373591D01*
X377459Y369809D01*
X376011Y366314D01*
X373336Y363639D01*
X369841Y362191D01*
X366059Y362191D01*
G37*
%LPD*%
%LPC*%
G36*
X520359Y362191D02*
X520359Y362191D01*
X516864Y363639D01*
X514189Y366314D01*
X512741Y369809D01*
X512741Y373591D01*
X514189Y377086D01*
X516864Y379761D01*
X520359Y381209D01*
X524141Y381209D01*
X527636Y379761D01*
X530311Y377086D01*
X531759Y373591D01*
X531759Y369809D01*
X530311Y366314D01*
X527636Y363639D01*
X524141Y362191D01*
X520359Y362191D01*
G37*
%LPD*%
%LPC*%
G36*
X366059Y387591D02*
X366059Y387591D01*
X362564Y389039D01*
X359889Y391714D01*
X358441Y395209D01*
X358441Y398991D01*
X359889Y402486D01*
X362564Y405161D01*
X366059Y406609D01*
X369841Y406609D01*
X373336Y405161D01*
X376011Y402486D01*
X377459Y398991D01*
X377459Y395209D01*
X376011Y391714D01*
X373336Y389039D01*
X369841Y387591D01*
X366059Y387591D01*
G37*
%LPD*%
%LPC*%
G36*
X520359Y387591D02*
X520359Y387591D01*
X516864Y389039D01*
X514189Y391714D01*
X512741Y395209D01*
X512741Y398991D01*
X514189Y402486D01*
X516864Y405161D01*
X520359Y406609D01*
X524141Y406609D01*
X527636Y405161D01*
X530311Y402486D01*
X531759Y398991D01*
X531759Y395209D01*
X530311Y391714D01*
X527636Y389039D01*
X524141Y387591D01*
X520359Y387591D01*
G37*
%LPD*%
%LPC*%
G36*
X520359Y438391D02*
X520359Y438391D01*
X516864Y439839D01*
X514189Y442514D01*
X512741Y446009D01*
X512741Y449791D01*
X514189Y453286D01*
X516864Y455961D01*
X520359Y457409D01*
X524141Y457409D01*
X527636Y455961D01*
X530311Y453286D01*
X531759Y449791D01*
X531759Y446009D01*
X530311Y442514D01*
X527636Y439839D01*
X524141Y438391D01*
X520359Y438391D01*
G37*
%LPD*%
%LPC*%
G36*
X366059Y438391D02*
X366059Y438391D01*
X362564Y439839D01*
X359889Y442514D01*
X358441Y446009D01*
X358441Y449791D01*
X359889Y453286D01*
X362564Y455961D01*
X366059Y457409D01*
X369841Y457409D01*
X373336Y455961D01*
X376011Y453286D01*
X377459Y449791D01*
X377459Y446009D01*
X376011Y442514D01*
X373336Y439839D01*
X369841Y438391D01*
X366059Y438391D01*
G37*
%LPD*%
%LPC*%
G36*
X366059Y412991D02*
X366059Y412991D01*
X362564Y414439D01*
X359889Y417114D01*
X358441Y420609D01*
X358441Y424391D01*
X359889Y427886D01*
X362564Y430561D01*
X366059Y432009D01*
X369841Y432009D01*
X373336Y430561D01*
X376011Y427886D01*
X377459Y424391D01*
X377459Y420609D01*
X376011Y417114D01*
X373336Y414439D01*
X369841Y412991D01*
X366059Y412991D01*
G37*
%LPD*%
%LPC*%
G36*
X366059Y260591D02*
X366059Y260591D01*
X362564Y262039D01*
X359889Y264714D01*
X358441Y268209D01*
X358441Y271991D01*
X359889Y275486D01*
X362564Y278161D01*
X366059Y279609D01*
X369841Y279609D01*
X373336Y278161D01*
X376011Y275486D01*
X377459Y271991D01*
X377459Y268209D01*
X376011Y264714D01*
X373336Y262039D01*
X369841Y260591D01*
X366059Y260591D01*
G37*
%LPD*%
%LPC*%
G36*
X520359Y235191D02*
X520359Y235191D01*
X516864Y236639D01*
X514189Y239314D01*
X512741Y242809D01*
X512741Y246591D01*
X514189Y250086D01*
X516864Y252761D01*
X520359Y254209D01*
X524141Y254209D01*
X527636Y252761D01*
X530311Y250086D01*
X531759Y246591D01*
X531759Y242809D01*
X530311Y239314D01*
X527636Y236639D01*
X524141Y235191D01*
X520359Y235191D01*
G37*
%LPD*%
%LPC*%
G36*
X520359Y209791D02*
X520359Y209791D01*
X516864Y211239D01*
X514189Y213914D01*
X512741Y217409D01*
X512741Y221191D01*
X514189Y224686D01*
X516864Y227361D01*
X520359Y228809D01*
X524141Y228809D01*
X527636Y227361D01*
X530311Y224686D01*
X531759Y221191D01*
X531759Y217409D01*
X530311Y213914D01*
X527636Y211239D01*
X524141Y209791D01*
X520359Y209791D01*
G37*
%LPD*%
%LPC*%
G36*
X366059Y209791D02*
X366059Y209791D01*
X362564Y211239D01*
X359889Y213914D01*
X358441Y217409D01*
X358441Y221191D01*
X359889Y224686D01*
X362564Y227361D01*
X366059Y228809D01*
X369841Y228809D01*
X373336Y227361D01*
X376011Y224686D01*
X377459Y221191D01*
X377459Y217409D01*
X376011Y213914D01*
X373336Y211239D01*
X369841Y209791D01*
X366059Y209791D01*
G37*
%LPD*%
%LPC*%
G36*
X366059Y133591D02*
X366059Y133591D01*
X362564Y135039D01*
X359889Y137714D01*
X358441Y141209D01*
X358441Y144991D01*
X359889Y148486D01*
X362564Y151161D01*
X366059Y152609D01*
X369841Y152609D01*
X373336Y151161D01*
X376011Y148486D01*
X377459Y144991D01*
X377459Y141209D01*
X376011Y137714D01*
X373336Y135039D01*
X369841Y133591D01*
X366059Y133591D01*
G37*
%LPD*%
%LPC*%
G36*
X520359Y158991D02*
X520359Y158991D01*
X516864Y160439D01*
X514189Y163114D01*
X512741Y166609D01*
X512741Y170391D01*
X514189Y173886D01*
X516864Y176561D01*
X520359Y178009D01*
X524141Y178009D01*
X527636Y176561D01*
X530311Y173886D01*
X531759Y170391D01*
X531759Y166609D01*
X530311Y163114D01*
X527636Y160439D01*
X524141Y158991D01*
X520359Y158991D01*
G37*
%LPD*%
%LPC*%
G36*
X366059Y158991D02*
X366059Y158991D01*
X362564Y160439D01*
X359889Y163114D01*
X358441Y166609D01*
X358441Y170391D01*
X359889Y173886D01*
X362564Y176561D01*
X366059Y178009D01*
X369841Y178009D01*
X373336Y176561D01*
X376011Y173886D01*
X377459Y170391D01*
X377459Y166609D01*
X376011Y163114D01*
X373336Y160439D01*
X369841Y158991D01*
X366059Y158991D01*
G37*
%LPD*%
%LPC*%
G36*
X520359Y133591D02*
X520359Y133591D01*
X516864Y135039D01*
X514189Y137714D01*
X512741Y141209D01*
X512741Y144991D01*
X514189Y148486D01*
X516864Y151161D01*
X520359Y152609D01*
X524141Y152609D01*
X527636Y151161D01*
X530311Y148486D01*
X531759Y144991D01*
X531759Y141209D01*
X530311Y137714D01*
X527636Y135039D01*
X524141Y133591D01*
X520359Y133591D01*
G37*
%LPD*%
%LPC*%
G36*
X520359Y184391D02*
X520359Y184391D01*
X516864Y185839D01*
X514189Y188514D01*
X512741Y192009D01*
X512741Y195791D01*
X514189Y199286D01*
X516864Y201961D01*
X520359Y203409D01*
X524141Y203409D01*
X527636Y201961D01*
X530311Y199286D01*
X531759Y195791D01*
X531759Y192009D01*
X530311Y188514D01*
X527636Y185839D01*
X524141Y184391D01*
X520359Y184391D01*
G37*
%LPD*%
%LPC*%
G36*
X520359Y260591D02*
X520359Y260591D01*
X516864Y262039D01*
X514189Y264714D01*
X512741Y268209D01*
X512741Y271991D01*
X514189Y275486D01*
X516864Y278161D01*
X520359Y279609D01*
X524141Y279609D01*
X527636Y278161D01*
X530311Y275486D01*
X531759Y271991D01*
X531759Y268209D01*
X530311Y264714D01*
X527636Y262039D01*
X524141Y260591D01*
X520359Y260591D01*
G37*
%LPD*%
%LPC*%
G36*
X366059Y285991D02*
X366059Y285991D01*
X362564Y287439D01*
X359889Y290114D01*
X358441Y293609D01*
X358441Y297391D01*
X359889Y300886D01*
X362564Y303561D01*
X366059Y305009D01*
X369841Y305009D01*
X373336Y303561D01*
X376011Y300886D01*
X377459Y297391D01*
X377459Y293609D01*
X376011Y290114D01*
X373336Y287439D01*
X369841Y285991D01*
X366059Y285991D01*
G37*
%LPD*%
%LPC*%
G36*
X366059Y539991D02*
X366059Y539991D01*
X362564Y541439D01*
X359889Y544114D01*
X358441Y547609D01*
X358441Y551391D01*
X359889Y554886D01*
X362564Y557561D01*
X366059Y559009D01*
X369841Y559009D01*
X373336Y557561D01*
X376011Y554886D01*
X377459Y551391D01*
X377459Y547609D01*
X376011Y544114D01*
X373336Y541439D01*
X369841Y539991D01*
X366059Y539991D01*
G37*
%LPD*%
%LPC*%
G36*
X718223Y781823D02*
X718223Y781823D01*
X718223Y802756D01*
X719637Y802532D01*
X721514Y801922D01*
X723273Y801026D01*
X724870Y799866D01*
X726266Y798470D01*
X727426Y796873D01*
X728322Y795114D01*
X728932Y793237D01*
X729241Y791287D01*
X729241Y781823D01*
X718223Y781823D01*
G37*
%LPD*%
%LPC*%
G36*
X766223Y811823D02*
X766223Y811823D01*
X766223Y822841D01*
X775687Y822841D01*
X777637Y822532D01*
X779514Y821922D01*
X781273Y821026D01*
X782870Y819866D01*
X784266Y818470D01*
X785426Y816873D01*
X786322Y815114D01*
X786932Y813237D01*
X787156Y811823D01*
X766223Y811823D01*
G37*
%LPD*%
%LPC*%
G36*
X718223Y778777D02*
X718223Y778777D01*
X729241Y778777D01*
X729241Y769313D01*
X728932Y767363D01*
X728322Y765486D01*
X727426Y763727D01*
X726266Y762130D01*
X724870Y760734D01*
X723273Y759574D01*
X721514Y758678D01*
X719637Y758068D01*
X718223Y757844D01*
X718223Y778777D01*
G37*
%LPD*%
%LPC*%
G36*
X742244Y811823D02*
X742244Y811823D01*
X742468Y813237D01*
X743078Y815114D01*
X743974Y816873D01*
X745134Y818470D01*
X746530Y819866D01*
X748127Y821026D01*
X749886Y821922D01*
X751763Y822532D01*
X753713Y822841D01*
X763177Y822841D01*
X763177Y811823D01*
X742244Y811823D01*
G37*
%LPD*%
%LPC*%
G36*
X704159Y781823D02*
X704159Y781823D01*
X704159Y791287D01*
X704468Y793237D01*
X705078Y795114D01*
X705974Y796873D01*
X707134Y798470D01*
X708530Y799866D01*
X710127Y801026D01*
X711886Y801922D01*
X713763Y802532D01*
X715177Y802756D01*
X715177Y781823D01*
X704159Y781823D01*
G37*
%LPD*%
%LPC*%
G36*
X766223Y797759D02*
X766223Y797759D01*
X766223Y808777D01*
X787156Y808777D01*
X786932Y807363D01*
X786322Y805486D01*
X785426Y803727D01*
X784266Y802130D01*
X782870Y800734D01*
X781273Y799574D01*
X779514Y798678D01*
X777637Y798068D01*
X775687Y797759D01*
X766223Y797759D01*
G37*
%LPD*%
%LPC*%
G36*
X713763Y758068D02*
X713763Y758068D01*
X711886Y758678D01*
X710127Y759574D01*
X708530Y760734D01*
X707134Y762130D01*
X705974Y763727D01*
X705078Y765486D01*
X704468Y767363D01*
X704159Y769313D01*
X704159Y778777D01*
X715177Y778777D01*
X715177Y757844D01*
X713763Y758068D01*
G37*
%LPD*%
%LPC*%
G36*
X753713Y797759D02*
X753713Y797759D01*
X751763Y798068D01*
X749886Y798678D01*
X748127Y799574D01*
X746530Y800734D01*
X745134Y802130D01*
X743974Y803727D01*
X743078Y805486D01*
X742468Y807363D01*
X742244Y808777D01*
X763177Y808777D01*
X763177Y797759D01*
X753713Y797759D01*
G37*
%LPD*%
%LPC*%
G36*
X750023Y44723D02*
X750023Y44723D01*
X750023Y53361D01*
X752709Y53361D01*
X758661Y47409D01*
X758661Y44723D01*
X750023Y44723D01*
G37*
%LPD*%
%LPC*%
G36*
X738339Y44723D02*
X738339Y44723D01*
X738339Y47409D01*
X744291Y53361D01*
X746977Y53361D01*
X746977Y44723D01*
X738339Y44723D01*
G37*
%LPD*%
%LPC*%
G36*
X750023Y33039D02*
X750023Y33039D01*
X750023Y41677D01*
X758661Y41677D01*
X758661Y38991D01*
X752709Y33039D01*
X750023Y33039D01*
G37*
%LPD*%
%LPC*%
G36*
X744291Y33039D02*
X744291Y33039D01*
X738339Y38991D01*
X738339Y41677D01*
X746977Y41677D01*
X746977Y33039D01*
X744291Y33039D01*
G37*
%LPD*%
%LPC*%
G36*
X173623Y461023D02*
X173623Y461023D01*
X173623Y468711D01*
X174822Y468472D01*
X176520Y467769D01*
X178048Y466748D01*
X179348Y465448D01*
X180369Y463920D01*
X181072Y462222D01*
X181311Y461023D01*
X173623Y461023D01*
G37*
%LPD*%
%LPC*%
G36*
X173623Y457977D02*
X173623Y457977D01*
X181311Y457977D01*
X181072Y456778D01*
X180369Y455080D01*
X179348Y453552D01*
X178048Y452252D01*
X176520Y451231D01*
X174822Y450528D01*
X173623Y450289D01*
X173623Y457977D01*
G37*
%LPD*%
%LPC*%
G36*
X162889Y461023D02*
X162889Y461023D01*
X163128Y462222D01*
X163831Y463920D01*
X164852Y465448D01*
X166152Y466748D01*
X167680Y467769D01*
X169378Y468472D01*
X170577Y468711D01*
X170577Y461023D01*
X162889Y461023D01*
G37*
%LPD*%
%LPC*%
G36*
X169378Y450528D02*
X169378Y450528D01*
X167680Y451231D01*
X166152Y452252D01*
X164852Y453552D01*
X163831Y455080D01*
X163128Y456778D01*
X162889Y457977D01*
X170577Y457977D01*
X170577Y450289D01*
X169378Y450528D01*
G37*
%LPD*%
%LPC*%
G36*
X369473Y195423D02*
X369473Y195423D01*
X369473Y202774D01*
X370575Y202555D01*
X372213Y201876D01*
X373688Y200891D01*
X374941Y199638D01*
X375926Y198163D01*
X376605Y196525D01*
X376824Y195423D01*
X369473Y195423D01*
G37*
%LPD*%
%LPC*%
G36*
X369473Y500223D02*
X369473Y500223D01*
X369473Y507574D01*
X370575Y507355D01*
X372213Y506676D01*
X373688Y505691D01*
X374941Y504438D01*
X375926Y502963D01*
X376605Y501325D01*
X376824Y500223D01*
X369473Y500223D01*
G37*
%LPD*%
%LPC*%
G36*
X523773Y424023D02*
X523773Y424023D01*
X523773Y431374D01*
X524875Y431155D01*
X526513Y430476D01*
X527988Y429491D01*
X529241Y428238D01*
X530226Y426763D01*
X530905Y425125D01*
X531124Y424023D01*
X523773Y424023D01*
G37*
%LPD*%
%LPC*%
G36*
X369473Y192377D02*
X369473Y192377D01*
X376824Y192377D01*
X376605Y191275D01*
X375926Y189637D01*
X374941Y188162D01*
X373688Y186909D01*
X372213Y185924D01*
X370575Y185245D01*
X369473Y185026D01*
X369473Y192377D01*
G37*
%LPD*%
%LPC*%
G36*
X513376Y424023D02*
X513376Y424023D01*
X513595Y425125D01*
X514274Y426763D01*
X515259Y428238D01*
X516512Y429491D01*
X517987Y430476D01*
X519625Y431155D01*
X520727Y431374D01*
X520727Y424023D01*
X513376Y424023D01*
G37*
%LPD*%
%LPC*%
G36*
X369473Y497177D02*
X369473Y497177D01*
X376824Y497177D01*
X376605Y496075D01*
X375926Y494437D01*
X374941Y492962D01*
X373688Y491709D01*
X372213Y490724D01*
X370575Y490045D01*
X369473Y489826D01*
X369473Y497177D01*
G37*
%LPD*%
%LPC*%
G36*
X359076Y500223D02*
X359076Y500223D01*
X359295Y501325D01*
X359974Y502963D01*
X360959Y504438D01*
X362212Y505691D01*
X363687Y506676D01*
X365325Y507355D01*
X366427Y507574D01*
X366427Y500223D01*
X359076Y500223D01*
G37*
%LPD*%
%LPC*%
G36*
X523773Y420977D02*
X523773Y420977D01*
X531124Y420977D01*
X530905Y419875D01*
X530226Y418237D01*
X529241Y416762D01*
X527988Y415509D01*
X526513Y414524D01*
X524875Y413845D01*
X523773Y413626D01*
X523773Y420977D01*
G37*
%LPD*%
%LPC*%
G36*
X359076Y195423D02*
X359076Y195423D01*
X359295Y196525D01*
X359974Y198163D01*
X360959Y199638D01*
X362212Y200891D01*
X363687Y201876D01*
X365325Y202555D01*
X366427Y202774D01*
X366427Y195423D01*
X359076Y195423D01*
G37*
%LPD*%
%LPC*%
G36*
X365325Y185245D02*
X365325Y185245D01*
X363687Y185924D01*
X362212Y186909D01*
X360959Y188162D01*
X359974Y189637D01*
X359295Y191275D01*
X359076Y192377D01*
X366427Y192377D01*
X366427Y185026D01*
X365325Y185245D01*
G37*
%LPD*%
%LPC*%
G36*
X365325Y490045D02*
X365325Y490045D01*
X363687Y490724D01*
X362212Y491709D01*
X360959Y492962D01*
X359974Y494437D01*
X359295Y496075D01*
X359076Y497177D01*
X366427Y497177D01*
X366427Y489826D01*
X365325Y490045D01*
G37*
%LPD*%
%LPC*%
G36*
X519625Y413845D02*
X519625Y413845D01*
X517987Y414524D01*
X516512Y415509D01*
X515259Y416762D01*
X514274Y418237D01*
X513595Y419875D01*
X513376Y420977D01*
X520727Y420977D01*
X520727Y413626D01*
X519625Y413845D01*
G37*
%LPD*%
%LPC*%
G36*
X172099Y459499D02*
X172099Y459499D01*
X172099Y459501D01*
X172101Y459501D01*
X172101Y459499D01*
X172099Y459499D01*
G37*
%LPD*%
%LPC*%
G36*
X367949Y193899D02*
X367949Y193899D01*
X367949Y193901D01*
X367951Y193901D01*
X367951Y193899D01*
X367949Y193899D01*
G37*
%LPD*%
%LPC*%
G36*
X367949Y498699D02*
X367949Y498699D01*
X367949Y498701D01*
X367951Y498701D01*
X367951Y498699D01*
X367949Y498699D01*
G37*
%LPD*%
%LPC*%
G36*
X716699Y780299D02*
X716699Y780299D01*
X716699Y780301D01*
X716701Y780301D01*
X716701Y780299D01*
X716699Y780299D01*
G37*
%LPD*%
%LPC*%
G36*
X764699Y810299D02*
X764699Y810299D01*
X764699Y810301D01*
X764701Y810301D01*
X764701Y810299D01*
X764699Y810299D01*
G37*
%LPD*%
%LPC*%
G36*
X522249Y422499D02*
X522249Y422499D01*
X522249Y422501D01*
X522251Y422501D01*
X522251Y422499D01*
X522249Y422499D01*
G37*
%LPD*%
%LPC*%
G36*
X748499Y43199D02*
X748499Y43199D01*
X748499Y43201D01*
X748501Y43201D01*
X748501Y43199D01*
X748499Y43199D01*
G37*
%LPD*%
D10*
X367950Y625700D03*
D11*
X367950Y600300D03*
X367950Y574900D03*
X367950Y549500D03*
X367950Y524100D03*
X367950Y498700D03*
X367950Y473300D03*
X367950Y447900D03*
X367950Y422500D03*
X367950Y397100D03*
X367950Y371700D03*
X367950Y346300D03*
X367950Y320900D03*
X367950Y295500D03*
X367950Y270100D03*
X367950Y244700D03*
X367950Y219300D03*
X367950Y193900D03*
X367950Y168500D03*
X367950Y143100D03*
X522250Y143100D03*
X522250Y168500D03*
X522250Y193900D03*
X522250Y219300D03*
X522250Y244700D03*
X522250Y270100D03*
X522250Y295500D03*
X522250Y320900D03*
X522250Y346300D03*
X522250Y371700D03*
X522250Y397100D03*
X522250Y422500D03*
X522250Y447900D03*
X522250Y473300D03*
X522250Y498700D03*
X522250Y524100D03*
X522250Y549500D03*
X522250Y574900D03*
X522250Y600300D03*
X522250Y625700D03*
D12*
X754700Y749300D02*
X774700Y749300D01*
X774700Y810300D02*
X754700Y810300D01*
X716700Y790300D02*
X716700Y770300D01*
D13*
X723100Y94000D03*
X748500Y94000D03*
X723100Y68600D03*
X748500Y68600D03*
X723100Y43200D03*
X748500Y43200D03*
D14*
X111304Y203500D02*
X98096Y203500D01*
X174296Y178100D02*
X187504Y178100D01*
X60504Y178100D02*
X47296Y178100D01*
D15*
X135400Y459500D03*
X172100Y459500D03*
X135300Y422800D03*
X172100Y422800D03*
D16*
X393700Y675640D02*
X424180Y706120D01*
D17*
X424180Y706120D03*
X393700Y675640D03*
X419100Y859790D03*
X102870Y701040D03*
D16*
X368300Y245110D02*
X370840Y245110D01*
X377190Y251460D01*
X379730Y251460D01*
X478790Y350520D01*
X478790Y351790D01*
X368300Y245110D02*
X367950Y244700D01*
D17*
X478790Y351790D03*
D18*
X320040Y515620D02*
X242570Y438150D01*
D17*
X320040Y515620D03*
X242570Y438150D03*
M02*
